<svg width="512" height="512" viewBox="0 0 512 512" fill="none" xmlns="http://www.w3.org/2000/svg">
<path d="M476.59 227.05L476.43 226.98L49.35 49.84C45.7578 48.3365 41.8489 47.7468 37.9731 48.1238C34.0972 48.5007 30.3752 49.8325 27.14 52C23.7219 54.2397 20.9143 57.294 18.9697 60.8882C17.0252 64.4823 16.0047 68.5035 16 72.59V185.88C16.0019 191.466 17.9526 196.877 21.5159 201.18C25.0791 205.482 30.0317 208.407 35.52 209.45L268.45 252.52C269.365 252.694 270.191 253.181 270.786 253.899C271.38 254.616 271.705 255.518 271.705 256.45C271.705 257.382 271.38 258.284 270.786 259.001C270.191 259.719 269.365 260.206 268.45 260.38L35.53 303.45C30.0432 304.49 25.0909 307.411 21.5261 311.71C17.9612 316.008 16.007 321.416 16 327V440.31C15.9973 444.212 16.9635 448.054 18.8119 451.491C20.6602 454.927 23.3329 457.851 26.59 460C30.508 462.603 35.1061 463.994 39.81 464C43.0802 463.997 46.3169 463.341 49.33 462.07L476.4 285.94L476.59 285.85C482.339 283.379 487.237 279.278 490.679 274.052C494.121 268.827 495.955 262.707 495.955 256.45C495.955 250.193 494.121 244.073 490.679 238.848C487.237 233.622 482.339 229.521 476.59 227.05Z" fill="white"/>
</svg>
